<?xml version="1.0" encoding="utf-8"?>
<!-- Generator: Adobe Illustrator 26.0.3, SVG Export Plug-In . SVG Version: 6.00 Build 0)  -->
<svg version="1.0" id="katman_1" xmlns="http://www.w3.org/2000/svg" xmlns:xlink="http://www.w3.org/1999/xlink" x="0px" y="0px"
	 viewBox="0 0 1420.7 932.3" style="enable-background:new 0 0 1420.7 932.3;" xml:space="preserve">
<style type="text/css">
	.st0{fill:#8C929D;}
	.st1{fill:#E24329;}
	.st2{fill:#FCA326;}
	.st3{fill:#FC6D26;}
	.st4{display:none;}
	.st5{display:inline;opacity:0.1;fill:#E828E3;enable-background:new    ;}
	.st6{display:inline;}
	.st7{font-family:'ArialMT';}
	.st8{font-size:24px;}
</style>
<g id="logo_art">
	<g>
		<g>
			<path id="path14_3_" class="st0" d="M917,384.9h-21.8l0.1,162.5h88.3v-20.1h-66.5L917,384.9L917,384.9z"/>
			<g id="g24_3_" transform="translate(977.327440, 143.284396)">
				<path id="path26_3_" class="st0" d="M90.3,375.6c-5.5,5.7-14.6,11.4-27,11.4c-16.6,0-23.3-8.2-23.3-18.9
					c0-16.1,11.2-23.8,35-23.8c4.5,0,11.7,0.5,15.4,1.2L90.3,375.6L90.3,375.6z M67.7,277.1c-17.6,0-33.8,6.2-46.4,16.7l7.7,13.4
					c8.9-5.2,19.8-10.4,35.5-10.4c17.9,0,25.8,9.2,25.8,24.6v7.9c-3.5-0.7-10.7-1.2-15.1-1.2c-38.2,0-57.6,13.4-57.6,41.4
					c0,25.1,15.4,37.7,38.7,37.7c15.7,0,30.8-7.2,36-18.9l4,15.9h15.4V321C111.6,294.7,100.2,277.1,67.7,277.1L67.7,277.1z"/>
			</g>
			<g id="g28_3_" transform="translate(1099.766904, 143.128930)">
				<path id="path30_3_" class="st0" d="M59.6,387.9c-8.2,0-15.4-1-20.8-3.5v-67.3v-7.8c7.4-6.2,16.6-10.7,28.3-10.7
					c21.1,0,29.2,14.9,29.2,39C96.3,371.8,83.2,387.9,59.6,387.9 M68.8,277.3c-19.5,0-30,13.3-30,13.3v-21l-0.1-27.8h-9.8H17.4
					l0.1,158.5c10.7,4.5,25.3,6.9,41.2,6.9c40.7,0,60.3-26,60.3-70.9C118.9,300.8,100.8,277.3,68.8,277.3"/>
			</g>
			<g id="g32_5_" transform="translate(584.042117, 143.630796)">
				<path id="path34_5_" class="st0" d="M95.6,258.9c19.3,0,31.8,6.4,39.9,12.9l9.4-16.3c-12.7-11.2-29.9-17.2-48.3-17.2
					c-46.4,0-78.9,28.3-78.9,85.4c0,59.8,35.1,83.1,75.2,83.1c20.1,0,37.2-4.7,48.4-9.4l-0.5-63.9V326v-12.6H81.3v20.1h38l0.5,48.5
					c-5,2.5-13.6,4.5-25.3,4.5c-32.2,0-53.8-20.3-53.8-63C40.6,280,62.9,258.9,95.6,258.9"/>
			</g>
			<g id="g36_4_" transform="translate(793.569045, 142.577463)">
				<path id="path38_4_" class="st0" d="M39.6,242.3H18.3l0.1,27.3v11.2v6.5v11.4v65v0.2c0,26.3,11.4,43.9,43.9,43.9
					c4.5,0,8.9-0.4,13.1-1.2v-19.1c-3.1,0.5-6.4,0.7-9.9,0.7c-17.9,0-25.8-9.2-25.8-24.6v-65h35.7v-17.8H39.7L39.6,242.3L39.6,242.3
					z"/>
			</g>
			<path id="path40_33_" class="st0" d="M757.7,547.4H779v-124h-21.3V547.4L757.7,547.4z"/>
			<path id="path42_3_" class="st0" d="M757.7,406.3H779V385h-21.3V406.3L757.7,406.3z"/>
		</g>
		<g>
			<path id="path50_5_" class="st1" d="M370.1,621.6L370.1,621.6l62.2-191.3H308L370.1,621.6L370.1,621.6z"/>
			<path id="path66_12_" class="st2" d="M220.9,430.2L220.9,430.2l-18.9,58.1c-1.7,5.3,0.1,11.1,4.7,14.4l163.5,118.8L220.9,430.2
				L220.9,430.2z"/>
			<path id="path74_5_" class="st1" d="M220.9,430.2H308L270.5,315c-1.9-5.9-10.3-5.9-12.3,0L220.9,430.2L220.9,430.2z"/>
			<path id="path82_12_" class="st2" d="M519.4,430.2L519.4,430.2l18.9,58.1c1.7,5.3-0.1,11.1-4.7,14.4L370.1,621.6L519.4,430.2
				L519.4,430.2z"/>
			<path id="path86_5_" class="st1" d="M519.4,430.2h-87.1L469.7,315c1.9-5.9,10.3-5.9,12.3,0L519.4,430.2L519.4,430.2z"/>
			<polygon class="st3" points="370.1,621.6 432.3,430.2 519.4,430.2 			"/>
			<polygon class="st3" points="370.1,621.6 220.9,430.2 308,430.2 			"/>
		</g>
	</g>
</g>
<g id="spacing_guides" xmlns:sketch="http://www.bohemiancoding.com/sketch/ns" class="st4">
	<path id="path40_32_" sketch:type="MSShapeGroup" class="st5" d="M76.3,186.7v124h1268v-124H76.3L76.3,186.7z"/>
	<path id="path40_31_" sketch:type="MSShapeGroup" class="st5" d="M76.3,621.7v124h1268v-124H76.3L76.3,621.7z"/>
	<path id="path40_30_" sketch:type="MSShapeGroup" class="st5" d="M339,621.2h62v-310h-62V621.2L339,621.2z"/>
	<path id="path40_29_" sketch:type="MSShapeGroup" class="st5" d="M539.5,746.7h62v-561h-62V746.7L539.5,746.7z"/>
	<text transform="matrix(1 0 0 1 333.5862 381.6667)" class="st6 st7 st8">H: 2.5 x</text>
	<text transform="matrix(1 0 0 1 545.806 469.4987)" class="st6 st7 st8">1/2 x</text>
	<text transform="matrix(1 0 0 1 698.6214 687.1645)" class="st6 st7 st8">1x</text>
	<text transform="matrix(1 0 0 1 698.6214 252.1655)" class="st6 st7 st8">1x</text>
	<path id="path40_27_" sketch:type="MSShapeGroup" class="st5" d="M77.3,746.7h124v-561h-124V746.7L77.3,746.7z"/>
	<text transform="matrix(1 0 0 1 128.6214 469.4987)" class="st6 st7 st8">1x</text>
	<path id="path40_3_" sketch:type="MSShapeGroup" class="st5" d="M1219.3,746.7h124v-561h-124V746.7L1219.3,746.7z"/>
	<text transform="matrix(1 0 0 1 1268.6215 469.4987)" class="st6 st7 st8">1x</text>
</g>
</svg>
